<?xml version="1.0" encoding="utf-8"?>
<!-- Generator: Adobe Illustrator 16.2.0, SVG Export Plug-In . SVG Version: 6.00 Build 0)  -->
<!DOCTYPE svg PUBLIC "-//W3C//DTD SVG 1.1//EN" "http://www.w3.org/Graphics/SVG/1.1/DTD/svg11.dtd">
<svg version="1.1" xmlns="http://www.w3.org/2000/svg" xmlns:xlink="http://www.w3.org/1999/xlink" x="0px" y="0px" width="16px"
	 height="17.386px" viewBox="0 0 16 17.386" enable-background="new 0 0 16 17.386" xml:space="preserve">
<g id="图层_1">
</g>
<g id="图层_2">
</g>
<g id="图层_3" display="none">
</g>
<g id="图层_4">
	<g>
		<g>
			<g>
				<g>
					<path fill="#333333" d="M7.135,14.372L1.636,8.707L12.764,0L16,3.236L7.135,14.372z M3.179,8.812l3.88,3.996l7.557-9.494
						L12.68,1.379L3.179,8.812z"/>
					
						<rect x="8.472" y="1.8" transform="matrix(0.6173 0.7867 -0.7867 0.6173 8.3463 -4.6855)" fill="#333333" width="1.035" height="8.873"/>
					<path fill="#333333" d="M1.826,15.632l-1.461-1.463l0.365-0.365c0.604-0.605,0.604-1.589,0-2.193l-0.364-0.365l1.103-1.106
						l0.732,0.73l-0.41,0.412c0.569,0.861,0.569,1.99,0,2.851l0.072,0.073c0.861-0.569,1.99-0.57,2.853,0l0.41-0.411l0.731,0.731
						l-1.105,1.105l-0.366-0.366c-0.604-0.604-1.589-0.604-2.194,0L1.826,15.632z"/>
					
						<rect x="0.396" y="14.308" transform="matrix(0.7066 0.7076 -0.7076 0.7066 10.9403 3.7788)" fill="#333333" width="1.034" height="1.55"/>
				</g>
				<rect x="1.142" y="16.386" fill="#333333" width="13.792" height="1"/>
			</g>
		</g>
	</g>
</g>
<g id="图层_5">
</g>
</svg>
