<?xml version="1.0" encoding="utf-8"?>
<!-- Generator: Adobe Illustrator 16.2.0, SVG Export Plug-In . SVG Version: 6.00 Build 0)  -->
<!DOCTYPE svg PUBLIC "-//W3C//DTD SVG 1.1//EN" "http://www.w3.org/Graphics/SVG/1.1/DTD/svg11.dtd">
<svg version="1.1" xmlns="http://www.w3.org/2000/svg" xmlns:xlink="http://www.w3.org/1999/xlink" x="0px" y="0px"
	 width="22.673px" height="23.2px" viewBox="0 0 22.673 23.2" enable-background="new 0 0 22.673 23.2" xml:space="preserve">
<g id="图层_1">
	<g>
		<g>
			<path fill="#FFFFFF" d="M11.336,23.2c-2.217,0-4.02-1.804-4.02-4.022h1.199c0,1.556,1.266,2.822,2.82,2.822
				c1.556,0,2.822-1.266,2.822-2.822h1.199C15.357,21.396,13.554,23.2,11.336,23.2z"/>
			<path fill="#FFFFFF" d="M9.286,3.148l0.049-0.747C9.451,0.631,10.445,0,11.336,0s1.885,0.631,2.002,2.4l0.05,0.747l-0.74-0.114
				c-0.851-0.131-1.775-0.13-2.622,0L9.286,3.148z M11.336,1.734c0.221,0,0.441,0.007,0.66,0.022
				C11.883,1.458,11.685,1.2,11.336,1.2s-0.547,0.258-0.66,0.556C10.895,1.742,11.114,1.734,11.336,1.734z"/>
			<path fill="#FFFFFF" d="M19.714,19.877H2.961C1.535,19.877,0,19.396,0,18.341c0-0.888,1.239-1.962,2.392-2.583l0.738-0.396
				c0.965-0.522,1.836-1.889,1.899-2.982l0.428-7.132C5.456,4.975,5.52,4.668,5.646,4.372c0.34-0.939,1.171-1.692,2.166-1.947
				c0.611-0.27,1.295-0.464,2.031-0.578c0.965-0.149,2.014-0.15,2.988,0c0.739,0.114,1.422,0.308,2.031,0.578
				c0.997,0.256,1.828,1.009,2.178,1.977c0.113,0.267,0.177,0.573,0.177,0.882l0.427,7.095c0.064,1.095,0.937,2.462,1.903,2.985
				l0.731,0.394c1.153,0.621,2.395,1.694,2.395,2.584C22.673,19.396,21.14,19.877,19.714,19.877z M1.222,18.292
				c0.187,0.152,0.806,0.385,1.739,0.385h16.753c0.933,0,1.551-0.232,1.737-0.385c-0.13-0.285-0.754-0.947-1.741-1.479l-0.732-0.395
				c-1.331-0.72-2.443-2.463-2.531-3.97l-0.428-7.13c-0.001-0.183-0.033-0.333-0.096-0.48c-0.232-0.64-0.762-1.112-1.395-1.261
				l-0.109-0.038c-0.522-0.236-1.118-0.407-1.771-0.507c-0.853-0.132-1.776-0.131-2.623,0c-0.65,0.1-1.246,0.271-1.771,0.508
				L8.145,3.579C7.514,3.728,6.983,4.2,6.761,4.812C6.687,4.99,6.655,5.135,6.655,5.284l-0.429,7.167
				c-0.087,1.504-1.197,3.248-2.527,3.968L2.96,16.814C1.975,17.346,1.352,18.008,1.222,18.292z"/>
			<path fill="#FFFFFF" d="M17.768,17.896c-1.768-1.115-3.087-3.308-3.206-5.334l-0.429-7.126l1.141-0.372l0.056,0.228l0.43,7.2
				c0.097,1.637,1.211,3.483,2.649,4.39L17.768,17.896z"/>
		</g>
	</g>
</g>
<g id="图层_2">
</g>
<g id="图层_4">
</g>
<g id="图层_5">
</g>
</svg>
