<?xml version="1.0" encoding="utf-8"?>
<!-- Generator: Adobe Illustrator 16.2.0, SVG Export Plug-In . SVG Version: 6.00 Build 0)  -->
<!DOCTYPE svg PUBLIC "-//W3C//DTD SVG 1.1//EN" "http://www.w3.org/Graphics/SVG/1.1/DTD/svg11.dtd">
<svg version="1.1" xmlns="http://www.w3.org/2000/svg" xmlns:xlink="http://www.w3.org/1999/xlink" x="0px" y="0px"
	 width="15.003px" height="15px" viewBox="0 0 15.003 15" enable-background="new 0 0 15.003 15" xml:space="preserve">
<g id="图层_1">
</g>
<g id="图层_2">
</g>
<g id="图层_3" display="none">
</g>
<g id="图层_4">
	<g opacity="0.7">
		<g>
			<g>
				<path fill="#333333" d="M6.689,13.476L1.533,8.165L11.968,0l3.035,3.035L6.689,13.476z M2.98,8.264l3.638,3.746l7.086-8.902
					L11.89,1.293L2.98,8.264z"/>
				<path fill="#333333" d="M1.712,14.658l-1.37-1.372l0.343-0.343c0.566-0.566,0.566-1.489,0-2.057l-0.342-0.342l1.034-1.038
					l0.687,0.686l-0.385,0.386c0.534,0.809,0.534,1.866,0,2.674l0.068,0.068c0.808-0.533,1.866-0.534,2.675,0.001l0.384-0.386
					l0.687,0.687l-1.037,1.036l-0.343-0.344c-0.567-0.566-1.49-0.565-2.058,0L1.712,14.658z"/>
				
					<rect x="0.372" y="13.416" transform="matrix(0.7066 0.7076 -0.7076 0.7066 10.2589 3.5439)" fill="#333333" width="0.969" height="1.454"/>
			</g>
		</g>
	</g>
</g>
<g id="图层_5">
</g>
</svg>
