<?xml version="1.0" encoding="utf-8"?>
<!-- Generator: Adobe Illustrator 16.2.0, SVG Export Plug-In . SVG Version: 6.00 Build 0)  -->
<!DOCTYPE svg PUBLIC "-//W3C//DTD SVG 1.1//EN" "http://www.w3.org/Graphics/SVG/1.1/DTD/svg11.dtd">
<svg version="1.1" xmlns="http://www.w3.org/2000/svg" xmlns:xlink="http://www.w3.org/1999/xlink" x="0px" y="0px"
	 width="27.932px" height="19.732px" viewBox="0 0 27.932 19.732" enable-background="new 0 0 27.932 19.732" xml:space="preserve">
<g id="图层_1">
	<g opacity="0.4">
		<g>
			<g>
				<g>
					<path fill="#4B4C4C" d="M13.964,19.732c-6.418,0-12.011-3.851-13.916-9.582c-0.064-0.18-0.064-0.385,0.001-0.571
						C1.958,3.852,7.55,0,13.964,0s12.01,3.852,13.924,9.584c0.059,0.186,0.059,0.383,0.002,0.562
						C25.975,15.882,20.379,19.732,13.964,19.732z M1.892,9.868c1.752,4.821,6.589,8.053,12.072,8.053
						c5.486,0,10.323-3.231,12.072-8.053c-1.748-4.822-6.585-8.055-12.072-8.055C8.481,1.813,3.644,5.046,1.892,9.868z"/>
					<path fill="#4B4C4C" d="M13.964,19.433c-6.286,0-11.767-3.768-13.632-9.377c-0.043-0.121-0.043-0.255,0-0.377
						C2.201,4.071,7.684,0.3,13.964,0.3c6.289,0,11.767,3.771,13.64,9.379c0.038,0.122,0.038,0.256,0,0.377
						C25.731,15.665,20.253,19.433,13.964,19.433L13.964,19.433z M1.574,9.868c1.765,5.001,6.716,8.353,12.391,8.353
						c5.678,0,10.629-3.352,12.391-8.353c-1.762-5.006-6.713-8.354-12.391-8.354C8.29,1.514,3.34,4.862,1.574,9.868L1.574,9.868z"/>
				</g>
				<g>
					<path fill="#4B4C4C" d="M13.964,16.141c-3.53,0-6.401-2.813-6.401-6.272c0-0.5,0.413-0.906,0.922-0.906
						c0.507,0,0.919,0.406,0.919,0.906c0,2.459,2.046,4.46,4.561,4.46s4.561-2.001,4.561-4.46s-2.046-4.46-4.561-4.46
						c-0.509,0-0.922-0.407-0.922-0.907s0.413-0.907,0.922-0.907c3.53,0,6.402,2.814,6.402,6.274
						C20.367,13.327,17.495,16.141,13.964,16.141z"/>
					<path fill="#4B4C4C" d="M13.964,15.841c-3.363,0-6.102-2.677-6.102-5.973c0-0.334,0.28-0.606,0.622-0.606
						c0.344,0,0.619,0.272,0.619,0.606c0,2.626,2.184,4.76,4.86,4.76c2.683,0,4.86-2.134,4.86-4.76c0-2.622-2.178-4.76-4.86-4.76
						c-0.339,0-0.622-0.269-0.622-0.607c0-0.334,0.283-0.607,0.622-0.607c3.366,0,6.103,2.68,6.103,5.975
						C20.067,13.164,17.331,15.841,13.964,15.841L13.964,15.841z"/>
				</g>
			</g>
		</g>
		<path fill="#4B4C4C" d="M15.092,4.329c0,0,1,8.427-6.583,6.428c0.539,3.123,0.347,0.521,3.785,4.852l3.82-0.157l1.921-2.989
			l1.896-3.838L15.092,4.329z"/>
	</g>
</g>
<g id="图层_2">
</g>
<g id="图层_3" display="none">
</g>
<g id="图层_4">
</g>
<g id="图层_5">
</g>
</svg>
