<?xml version="1.0" encoding="utf-8"?>
<!-- Generator: Adobe Illustrator 16.2.0, SVG Export Plug-In . SVG Version: 6.00 Build 0)  -->
<!DOCTYPE svg PUBLIC "-//W3C//DTD SVG 1.1//EN" "http://www.w3.org/Graphics/SVG/1.1/DTD/svg11.dtd">
<svg version="1.1" xmlns="http://www.w3.org/2000/svg" xmlns:xlink="http://www.w3.org/1999/xlink" x="0px" y="0px" width="40px"
	 height="40px" viewBox="0 0 40 40" enable-background="new 0 0 40 40" xml:space="preserve">
<g id="图层_1">
	<g>
		
			<image overflow="visible" opacity="0.25" width="200" height="200" xlink:href="7A8DFB3B.png"  transform="matrix(0.24 0 0 0.24 -4 -3)">
		</image>
		<g>
			<g>
				<g>
					<g>
						<rect x="2" y="2" fill="#2C3137" width="36" height="36"/>
					</g>
				</g>
				<g>
					
						<image overflow="visible" opacity="0.25" width="113" height="113" xlink:href="7A8DFB39.png"  transform="matrix(0.24 0 0 0.24 6.3877 8.103)">
					</image>
					<g>
						<g>
							<g>
								<polygon fill="#FFFFFF" points="30.445,16.231 28.245,16.231 28.245,12.303 24.317,12.303 24.317,10.103 30.445,10.103 
																	"/>
								
									<rect x="24.137" y="9.501" transform="matrix(0.7071 0.7071 -0.7071 0.7071 18.2186 -13.3605)" fill="#FFFFFF" width="2.2" height="11.62"/>
								<polygon fill="#FFFFFF" points="15.515,31.161 9.388,31.161 9.388,25.033 11.588,25.033 11.588,28.96 15.515,28.96 								
									"/>
								
									<rect x="13.496" y="20.142" transform="matrix(0.7071 0.7071 -0.7071 0.7071 22.626 -2.7197)" fill="#FFFFFF" width="2.2" height="11.62"/>
							</g>
							<g>
								<polygon fill="#FFFFFF" points="14.102,17.489 11.902,17.489 11.902,12.618 16.772,12.618 16.772,14.818 14.102,14.818 
																	"/>
								<rect x="11.902" y="18.747" fill="#FFFFFF" width="2.2" height="3.771"/>
								<rect x="18.031" y="12.617" fill="#FFFFFF" width="3.77" height="2.2"/>
							</g>
							<g>
								<polygon fill="#FFFFFF" points="27.931,28.645 23.061,28.645 23.061,26.445 25.73,26.445 25.73,23.774 27.931,23.774 
																	"/>
								<rect x="25.73" y="18.745" fill="#FFFFFF" width="2.2" height="3.771"/>
								<rect x="18.03" y="26.446" fill="#FFFFFF" width="3.771" height="2.2"/>
							</g>
						</g>
					</g>
				</g>
			</g>
		</g>
	</g>
</g>
<g id="图层_2">
</g>
<g id="图层_3" display="none">
</g>
<g id="图层_4">
</g>
<g id="图层_5">
</g>
</svg>
