<?xml version="1.0" encoding="utf-8"?>
<!-- Generator: Adobe Illustrator 16.2.0, SVG Export Plug-In . SVG Version: 6.00 Build 0)  -->
<!DOCTYPE svg PUBLIC "-//W3C//DTD SVG 1.1//EN" "http://www.w3.org/Graphics/SVG/1.1/DTD/svg11.dtd">
<svg version="1.1" xmlns="http://www.w3.org/2000/svg" xmlns:xlink="http://www.w3.org/1999/xlink" x="0px" y="0px"
	 width="19.664px" height="20.8px" viewBox="0 0 19.664 20.8" enable-background="new 0 0 19.664 20.8" xml:space="preserve">
<g id="图层_1">
	<g>
		<g opacity="0.8">
			<rect x="9.032" y="3.381" fill="#323333" width="1.6" height="12.902"/>
			<path fill="#323333" d="M10.632,20.8h-1.6c0-0.982-0.799-1.781-1.781-1.781H0.155v-1.6h7.097
				C9.116,17.419,10.632,18.936,10.632,20.8z"/>
			<path fill="#323333" d="M10.632,20.8h-1.6c0-1.864,1.516-3.38,3.38-3.38h7.097v1.6h-7.097
				C11.431,19.019,10.632,19.818,10.632,20.8z"/>
			<path fill="#323333" d="M7.916,16.438H0V0h7.251c1.864,0,3.38,1.517,3.38,3.381h-1.6c0-0.982-0.799-1.781-1.781-1.781H1.6v13.239
				h6.316V16.438z"/>
			<path fill="#323333" d="M19.664,16.438H11.75v-1.6h6.315V1.6h-5.652c-0.982,0-1.781,0.799-1.781,1.781h-1.6
				C9.032,1.517,10.548,0,12.413,0h7.251V16.438z"/>
		</g>
	</g>
	<g>
		<g>
			<g opacity="0.4">
				
					<image overflow="visible" width="559" height="585" xlink:href="AD1E5ADA.png"  transform="matrix(0.24 0 0 0.24 13.5732 -59.5205)">
				</image>
			</g>
		</g>
	</g>
</g>
<g id="图层_2">
</g>
<g id="图层_3" display="none">
</g>
<g id="图层_4">
</g>
<g id="图层_5">
</g>
</svg>
