<?xml version="1.0" encoding="utf-8"?>
<!-- Generator: Adobe Illustrator 16.2.0, SVG Export Plug-In . SVG Version: 6.00 Build 0)  -->
<!DOCTYPE svg PUBLIC "-//W3C//DTD SVG 1.1//EN" "http://www.w3.org/Graphics/SVG/1.1/DTD/svg11.dtd">
<svg version="1.1" xmlns="http://www.w3.org/2000/svg" xmlns:xlink="http://www.w3.org/1999/xlink" x="0px" y="0px" width="40px"
	 height="40px" viewBox="0 0 40 40" enable-background="new 0 0 40 40" xml:space="preserve">
<g id="图层_1">
	<g>
		
			<image overflow="visible" opacity="0.25" width="200" height="200" xlink:href="62C74C5F.png"  transform="matrix(0.24 0 0 0.24 -4 -3)">
		</image>
		<g>
			<g>
				<g>
					<rect x="2" y="2" fill="#2C3137" width="36" height="36"/>
				</g>
				<g>
					
						<image overflow="visible" opacity="0.25" width="89" height="116" xlink:href="62C74C5D.png"  transform="matrix(0.24 0 0 0.24 9.1294 7.5713)">
					</image>
					<g>
						<g>
							<path fill="#FFFFFF" d="M19.777,31.269l-6.534-10.085c-0.734-1.216-1.113-2.58-1.113-3.972c0-4.213,3.428-7.641,7.641-7.641
								c4.213,0,7.641,3.428,7.641,7.641c0,1.389-0.378,2.751-1.093,3.938L19.777,31.269z M19.771,11.571
								c-3.11,0-5.641,2.53-5.641,5.641c0,1.027,0.28,2.034,0.809,2.911l4.836,7.465l4.847-7.498
								c0.51-0.849,0.789-1.854,0.789-2.879C25.411,14.102,22.881,11.571,19.771,11.571z"/>
							<path fill="#FFFFFF" d="M19.771,20.301c-1.851,0-3.357-1.506-3.357-3.357s1.506-3.357,3.357-3.357s3.357,1.506,3.357,3.357
								S21.622,20.301,19.771,20.301z M19.771,15.586c-0.748,0-1.357,0.609-1.357,1.357s0.609,1.357,1.357,1.357
								c0.749,0,1.357-0.609,1.357-1.357S20.519,15.586,19.771,15.586z"/>
						</g>
					</g>
				</g>
			</g>
		</g>
	</g>
</g>
<g id="图层_2">
</g>
<g id="图层_3" display="none">
</g>
<g id="图层_4">
</g>
<g id="图层_5">
</g>
</svg>
