<?xml version="1.0" encoding="utf-8"?>
<!-- Generator: Adobe Illustrator 16.2.0, SVG Export Plug-In . SVG Version: 6.00 Build 0)  -->
<!DOCTYPE svg PUBLIC "-//W3C//DTD SVG 1.1//EN" "http://www.w3.org/Graphics/SVG/1.1/DTD/svg11.dtd">
<svg version="1.1" xmlns="http://www.w3.org/2000/svg" xmlns:xlink="http://www.w3.org/1999/xlink" x="0px" y="0px" width="32.21px"
	 height="32px" viewBox="0 0 32.21 32" enable-background="new 0 0 32.21 32" xml:space="preserve">
<g id="图层_1">
	<g>
		<g>
			<path fill-rule="evenodd" clip-rule="evenodd" fill="#FFFFFF" d="M14.261,0c7.792,0,14.078,6.312,14.078,14.104
				c0,5.793-3.48,10.701-8.493,12.857l-2.312-5.844c2.65-1.22,4.494-3.923,4.494-7.013c0-4.313-3.48-7.766-7.767-7.766
				c-1.429,0-2.779,0.389-3.923,1.065l-0.104-0.259l6.961,18.207c-1.869-4.831-1.792-4.805,0,0c0,0-3.299-2.752-7.819-2.675
				C7.221,17.092,5.04,11.454,2.883,5.819C5.429,2.286,9.585,0,14.261,0z"/>
			<path fill-rule="evenodd" clip-rule="evenodd" fill="#FFFFFF" d="M1.819,24.857c0,0,1.22-0.155,2.882-0.311
				C1.819,22.026,0,18.285,0,14.157c0-1.949,0.416-3.82,1.118-5.507l6.026,15.793c1.506-0.052,3.065-0.026,4.234,0.157
				c3.273,0.57,7.377,3.558,9.118,4.467c1.766,0.856,4.52,1.558,7.585,1.609c3.091,0.078,4.13-0.26,4.13-0.26
				s-4.183,1.818-8.832,1.559c-4.625-0.233-9.482-2.908-13.924-2.805c-4.441,0.129-4.701,1.74-4.701,1.74L1.819,24.857z"/>
		</g>
	</g>
</g>
<g id="图层_2">
</g>
<g id="图层_3" display="none">
</g>
<g id="图层_4">
</g>
<g id="图层_5">
</g>
</svg>
