<?xml version="1.0" encoding="utf-8"?>
<!-- Generator: Adobe Illustrator 16.2.0, SVG Export Plug-In . SVG Version: 6.00 Build 0)  -->
<!DOCTYPE svg PUBLIC "-//W3C//DTD SVG 1.1//EN" "http://www.w3.org/Graphics/SVG/1.1/DTD/svg11.dtd">
<svg version="1.1" xmlns="http://www.w3.org/2000/svg" xmlns:xlink="http://www.w3.org/1999/xlink" x="0px" y="0px" width="40px"
	 height="40px" viewBox="0 0 40 40" enable-background="new 0 0 40 40" xml:space="preserve">
<g id="图层_1">
	<g>
		
			<image overflow="visible" opacity="0.25" width="200" height="200" xlink:href="8A0664E9.png"  transform="matrix(0.24 0 0 0.24 -4 -3)">
		</image>
		<g>
			<g>
				<g>
					<g>
						<rect x="2" y="2" fill="#ABADAF" width="36" height="36"/>
					</g>
					<g>
						<g>
							
								<rect x="13.337" y="21.879" transform="matrix(0.6866 0.7271 -0.7271 0.6866 23.3793 -2.2829)" fill="#FFFFFF" width="2" height="8.191"/>
							<g>
								<path fill="#FFFFFF" d="M18.637,24.825c-1.646,0-2.984-1.339-2.984-2.985s1.339-2.985,2.984-2.985
									c1.646,0,2.985,1.339,2.985,2.985S20.283,24.825,18.637,24.825z M18.637,20.854c-0.543,0-0.984,0.442-0.984,0.985
									s0.441,0.985,0.984,0.985c0.543,0,0.985-0.442,0.985-0.985S19.181,20.854,18.637,20.854z"/>
							</g>
							<g>
								<path fill="#FFFFFF" d="M25.255,20.192c-1.504,0-2.918-0.586-3.982-1.649c-1.064-1.063-1.65-2.478-1.65-3.981
									c0-1.504,0.586-2.918,1.65-3.983l2.045-2.067l7.983,7.971l-2.064,2.06C28.173,19.607,26.759,20.192,25.255,20.192z
									 M23.327,11.347l-0.636,0.643c-0.69,0.69-1.068,1.602-1.068,2.572s0.378,1.881,1.064,2.567c1.372,1.371,3.764,1.372,5.136,0
									l0.646-0.645L23.327,11.347z"/>
							</g>
							<polygon fill="#FFFFFF" points="10.213,30.014 11.748,16.583 18.151,13.024 19.123,14.772 13.618,17.833 12.507,27.558 
								23.193,25.59 24.98,20.826 26.853,21.528 24.669,27.352 							"/>
						</g>
					</g>
				</g>
			</g>
		</g>
	</g>
</g>
<g id="图层_2">
</g>
<g id="图层_3" display="none">
</g>
<g id="图层_4">
</g>
<g id="图层_5">
</g>
</svg>
