<?xml version="1.0" encoding="utf-8"?>
<!-- Generator: Adobe Illustrator 16.2.0, SVG Export Plug-In . SVG Version: 6.00 Build 0)  -->
<!DOCTYPE svg PUBLIC "-//W3C//DTD SVG 1.1//EN" "http://www.w3.org/Graphics/SVG/1.1/DTD/svg11.dtd">
<svg version="1.1" xmlns="http://www.w3.org/2000/svg" xmlns:xlink="http://www.w3.org/1999/xlink" x="0px" y="0px" width="40px"
	 height="40px" viewBox="0 0 40 40" enable-background="new 0 0 40 40" xml:space="preserve">
<g id="图层_1">
	<g>
		<g>
			
				<image overflow="visible" opacity="0.25" width="200" height="200" xlink:href="CC3D6359.png"  transform="matrix(0.24 0 0 0.24 -4 -3)">
			</image>
			<g>
				<g>
					<path fill="#3D7DB0" d="M36,38H4c-1.104,0-2-0.896-2-2V4c0-1.104,0.896-2,2-2h32c1.104,0,2,0.896,2,2v32
						C38,37.104,37.104,38,36,38z"/>
				</g>
			</g>
		</g>
		<g>
			
				<image overflow="visible" opacity="0.25" width="87" height="100" xlink:href="CC3D635B.png"  transform="matrix(0.24 0 0 0.24 9.0483 10.8877)">
			</image>
			<g>
				<path fill="#FFFFFF" d="M18.672,27.497l-0.296-0.039c-3.608-0.49-6.328-3.605-6.328-7.248c0-4.037,3.286-7.322,7.324-7.322
					s7.323,3.285,7.323,7.322v0.358h-2.139V20.21c0-2.858-2.325-5.187-5.185-5.187s-5.186,2.328-5.186,5.187
					c0,2.413,1.712,4.541,4.069,5.059l0.416,0.091v-3.216l7.013,4.32l-7.013,4.323V27.497z"/>
			</g>
		</g>
	</g>
</g>
<g id="图层_2">
</g>
<g id="图层_4">
</g>
<g id="图层_5">
</g>
</svg>
