<?xml version="1.0" encoding="utf-8"?>
<!-- Generator: Adobe Illustrator 16.2.0, SVG Export Plug-In . SVG Version: 6.00 Build 0)  -->
<!DOCTYPE svg PUBLIC "-//W3C//DTD SVG 1.1//EN" "http://www.w3.org/Graphics/SVG/1.1/DTD/svg11.dtd">
<svg version="1.1" xmlns="http://www.w3.org/2000/svg" xmlns:xlink="http://www.w3.org/1999/xlink" x="0px" y="0px" width="40px"
	 height="40px" viewBox="0 0 40 40" enable-background="new 0 0 40 40" xml:space="preserve">
<g id="图层_1">
	<g>
		<g>
			
				<image overflow="visible" opacity="0.25" width="201" height="202" xlink:href="DFDCEF9C.png"  transform="matrix(0.24 0 0 0.24 -4.0845 -3.1035)">
			</image>
			<g>
				<g>
					<path fill="#2C3137" d="M36,38H4c-1.104,0-2-0.896-2-2V4c0-1.104,0.896-2,2-2h32c1.104,0,2,0.896,2,2v32
						C38,37.104,37.104,38,36,38z"/>
				</g>
			</g>
		</g>
		<g>
			
				<image overflow="visible" opacity="0.25" width="87" height="100" xlink:href="DFDCEF9D.png"  transform="matrix(0.24 0 0 0.24 9.0483 9.4004)">
			</image>
			<g>
				<path fill="#FFFFFF" d="M19.373,29.301c-4.038,0-7.324-3.284-7.324-7.323c0-3.642,2.72-6.758,6.328-7.246l0.296-0.041V11.4
					l7.013,4.322l-7.013,4.321v-3.216l-0.416,0.092c-2.357,0.519-4.069,2.646-4.069,5.058c0,2.86,2.326,5.187,5.186,5.187
					s5.185-2.326,5.185-5.187V21.62h2.139v0.357C26.696,26.017,23.411,29.301,19.373,29.301z"/>
			</g>
		</g>
	</g>
</g>
<g id="图层_2">
</g>
<g id="图层_4">
</g>
<g id="图层_5">
</g>
</svg>
