<?xml version="1.0" encoding="utf-8"?>
<!-- Generator: Adobe Illustrator 16.2.0, SVG Export Plug-In . SVG Version: 6.00 Build 0)  -->
<!DOCTYPE svg PUBLIC "-//W3C//DTD SVG 1.1//EN" "http://www.w3.org/Graphics/SVG/1.1/DTD/svg11.dtd">
<svg version="1.1" xmlns="http://www.w3.org/2000/svg" xmlns:xlink="http://www.w3.org/1999/xlink" x="0px" y="0px" width="40px"
	 height="40px" viewBox="0 0 40 40" enable-background="new 0 0 40 40" xml:space="preserve">
<g id="图层_1">
</g>
<g id="图层_2">
</g>
<g id="图层_4">
	<g>
		<g>
			<g>
				
					<image overflow="visible" opacity="0.25" width="201" height="201" xlink:href="8224950B.png"  transform="matrix(0.24 0 0 0.24 -4.0845 -3.1484)">
				</image>
				<g>
					<g>
						<path fill="#2C3137" d="M36,38H4c-1.104,0-2-0.896-2-2V4c0-1.105,0.896-2,2-2h32c1.104,0,2,0.895,2,2v32
							C38,37.104,37.104,38,36,38z"/>
					</g>
				</g>
			</g>
		</g>
		<g>
			
				<image overflow="visible" opacity="0.25" width="96" height="96" xlink:href="82249509.png"  transform="matrix(0.24 0 0 0.24 8.5366 10.1758)">
			</image>
			<g>
				<g>
					<path fill="#FFFFFF" d="M28.537,29.176h-17v-17h17V29.176z M13.537,27.176h13v-13h-13V27.176z"/>
				</g>
			</g>
		</g>
	</g>
</g>
<g id="图层_5">
</g>
</svg>
